{
    "asset" : {
        "generator" : "Khronos glTF Blender I/O v1.2.75",
        "version" : "2.0"
    },
    "scene" : 0,
    "scenes" : [
        {
            "name" : "Scene",
            "nodes" : [
                0,
                1,
                2
            ]
        }
    ],
    "nodes" : [
        {
            "name" : "Light",
            "rotation" : [
                0.16907575726509094,
                0.7558803558349609,
                -0.27217137813568115,
                0.570947527885437
            ],
            "translation" : [
                4.076245307922363,
                5.903861999511719,
                -1.0054539442062378
            ]
        },
        {
            "name" : "Camera",
            "rotation" : [
                0.483536034822464,
                0.33687159419059753,
                -0.20870360732078552,
                0.7804827094078064
            ],
            "translation" : [
                7.358891487121582,
                4.958309173583984,
                6.925790786743164
            ]
        },
        {
            "mesh" : 0,
            "name" : "Drift Scan Mesh Lowres"
        }
    ],
    "meshes" : [
        {
            "name" : "Drift Scan Mesh Lowres",
            "primitives" : [
                {
                    "attributes" : {
                        "POSITION" : 0,
                        "NORMAL" : 1
                    },
                    "indices" : 2
                }
            ]
        }
    ],
    "accessors" : [
        {
            "bufferView" : 0,
            "componentType" : 5126,
            "count" : 55062,
            "max" : [
                3994.39453125,
                1135.204345703125,
                3092.537109375
            ],
            "min" : [
                3926.877197265625,
                1122.5047607421875,
                2549.3291015625
            ],
            "type" : "VEC3"
        },
        {
            "bufferView" : 1,
            "componentType" : 5126,
            "count" : 55062,
            "type" : "VEC3"
        },
        {
            "bufferView" : 2,
            "componentType" : 5123,
            "count" : 328719,
            "type" : "SCALAR"
        }
    ],
    "bufferViews" : [
        {
            "buffer" : 0,
            "byteLength" : 660744,
            "byteOffset" : 0
        },
        {
            "buffer" : 0,
            "byteLength" : 660744,
            "byteOffset" : 660744
        },
        {
            "buffer" : 0,
            "byteLength" : 657438,
            "byteOffset" : 1321488
        }
    ],
    "buffers" : [
        {
            "byteLength" : 1978928,
            "uri" : "EGS_Collab_mesh.bin"
        }
    ]
}
